<svg width="1280" height="460" viewBox="0 0 1280 460" fill="none" xmlns="http://www.w3.org/2000/svg">
  <rect width="1280" height="460" rx="28" fill="#020617"></rect>

  <g opacity="0.24">
    <path d="M0 90H1280" stroke="#1E293B"></path>
    <path d="M0 180H1280" stroke="#1E293B"></path>
    <path d="M0 270H1280" stroke="#1E293B"></path>
    <path d="M0 360H1280" stroke="#1E293B"></path>
    <path d="M160 0V460" stroke="#1E293B"></path>
    <path d="M320 0V460" stroke="#1E293B"></path>
    <path d="M480 0V460" stroke="#1E293B"></path>
    <path d="M640 0V460" stroke="#1E293B"></path>
    <path d="M800 0V460" stroke="#1E293B"></path>
    <path d="M960 0V460" stroke="#1E293B"></path>
    <path d="M1120 0V460" stroke="#1E293B"></path>
  </g>

  <circle cx="980" cy="40" r="260" fill="#10B981" opacity="0.12"></circle>
  <circle cx="270" cy="390" r="220" fill="#3B82F6" opacity="0.08"></circle>
  <circle cx="1120" cy="340" r="180" fill="#F59E0B" opacity="0.08"></circle>

  <rect x="72" y="66" width="1136" height="328" rx="24" fill="#0F172A" stroke="#1E293B"></rect>

  <g filter="url(#brandGlow)">
    <rect x="112" y="112" width="74" height="74" rx="12" fill="#10B981"></rect>
  </g>

  <text x="149" y="158" text-anchor="middle" font-family="JetBrains Mono, Consolas, monospace" font-size="34" font-weight="800" fill="#020617">M</text>

  <text x="210" y="164" font-family="JetBrains Mono, Consolas, monospace" font-size="64" font-weight="900" letter-spacing="-4" fill="#FFFFFF">PAIVA</text>
  <text x="417" y="164" font-family="JetBrains Mono, Consolas, monospace" font-size="64" font-weight="900" letter-spacing="-4" fill="#10B981">_</text>

  <text x="114" y="220" font-family="Inter, Arial, sans-serif" font-size="17" font-weight="800" letter-spacing="2" fill="#94A3B8">
    ARQUITETURA DE IA · DESENVOLVIMENTO WEB · AUTOMAÇÃO &amp; GESTÃO ESTRATÉGICA
  </text>

  <text x="114" y="273" font-family="Inter, Arial, sans-serif" font-size="28" font-weight="800" fill="#FFFFFF">
    Portfólio profissional interativo com modos Tech, RH e Cliente.
  </text>

  <text x="114" y="313" font-family="Inter, Arial, sans-serif" font-size="18" font-weight="500" fill="#94A3B8">
    Cases dinâmicos · Painel administrativo · Analytics local · Projetos em produção
  </text>

  <g>
    <rect x="114" y="344" width="118" height="34" rx="17" fill="#10B981"></rect>
    <text x="173" y="366" text-anchor="middle" font-family="JetBrains Mono, Consolas, monospace" font-size="11" font-weight="800" fill="#020617">MODO TECH</text>

    <rect x="246" y="344" width="104" height="34" rx="17" fill="#111827" stroke="#334155"></rect>
    <text x="298" y="366" text-anchor="middle" font-family="JetBrains Mono, Consolas, monospace" font-size="11" font-weight="800" fill="#94A3B8">MODO RH</text>

    <rect x="364" y="344" width="142" height="34" rx="17" fill="#111827" stroke="#334155"></rect>
    <text x="435" y="366" text-anchor="middle" font-family="JetBrains Mono, Consolas, monospace" font-size="11" font-weight="800" fill="#94A3B8">MODO CLIENTE</text>
  </g>

  <g transform="translate(858 114)">
    <rect width="300" height="230" rx="20" fill="#020617" stroke="#1E293B"></rect>
    <text x="28" y="40" font-family="JetBrains Mono, Consolas, monospace" font-size="11" font-weight="800" letter-spacing="2" fill="#10B981">SYSTEM.PREVIEW</text>

    <rect x="28" y="66" width="74" height="58" rx="12" fill="#0F172A" stroke="#1E293B"></rect>
    <text x="65" y="101" text-anchor="middle" font-family="JetBrains Mono, Consolas, monospace" font-size="20" font-weight="900" fill="#FFFFFF">IA</text>

    <rect x="114" y="66" width="74" height="58" rx="12" fill="#0F172A" stroke="#1E293B"></rect>
    <text x="151" y="101" text-anchor="middle" font-family="JetBrains Mono, Consolas, monospace" font-size="20" font-weight="900" fill="#FFFFFF">WEB</text>

    <rect x="200" y="66" width="74" height="58" rx="12" fill="#0F172A" stroke="#1E293B"></rect>
    <text x="237" y="101" text-anchor="middle" font-family="JetBrains Mono, Consolas, monospace" font-size="20" font-weight="900" fill="#FFFFFF">OPS</text>

    <rect x="28" y="150" width="246" height="8" rx="4" fill="#334155"></rect>
    <rect x="28" y="150" width="186" height="8" rx="4" fill="#10B981"></rect>

    <rect x="28" y="176" width="246" height="8" rx="4" fill="#334155"></rect>
    <rect x="28" y="176" width="138" height="8" rx="4" fill="#10B981"></rect>

    <rect x="28" y="202" width="246" height="8" rx="4" fill="#334155"></rect>
    <rect x="28" y="202" width="210" height="8" rx="4" fill="#10B981"></rect>
  </g>

  <defs>
    <filter id="brandGlow" x="82" y="82" width="134" height="134" filterUnits="userSpaceOnUse">
      <feGaussianBlur stdDeviation="12" result="blur"></feGaussianBlur>
      <feFlood flood-color="#10B981" flood-opacity="0.32"></feFlood>
      <feComposite in2="blur" operator="in"></feComposite>
      <feMerge>
        <feMergeNode></feMergeNode>
        <feMergeNode in="SourceGraphic"></feMergeNode>
      </feMerge>
    </filter>
  </defs>
</svg>